<?xml version="1.0" encoding="utf-8"?>
<!-- Generator: Adobe Illustrator 28.0.0, SVG Export Plug-In . SVG Version: 6.00 Build 0)  -->
<svg version="1.1" id="Layer_1" xmlns="http://www.w3.org/2000/svg" xmlns:xlink="http://www.w3.org/1999/xlink" x="0px" y="0px"
	 viewBox="0 0 800 800" style="enable-background:new 0 0 800 800;" xml:space="preserve">
<style type="text/css">
	.st0{fill:none;stroke:#000000;stroke-width:97.997;stroke-miterlimit:10;}
	.st1{stroke:#000000;stroke-width:0.63;stroke-miterlimit:10;}
	.st2{fill:none;stroke:url(#SVGID_1_);stroke-width:99.6035;stroke-miterlimit:10;}
	.st3{fill:none;}
	.st4{fill:#584689;}
</style>
<g>
	<circle class="st0" cx="400" cy="400" r="319.76"/>
	<path d="M413.23,419.32l12.21,70h-44.81l12.21-70c-14.42-4.37-24.92-17.76-24.92-33.6c0-19.4,15.73-35.11,35.12-35.11
		c19.38,0,35.11,15.71,35.11,35.11C438.15,401.56,427.64,414.95,413.23,419.32z"/>
	<g>
		<path class="st1" d="M324.8,304.44c8.01-0.51,17.13-1,27.02-1.45l-0.79-29.22c-0.61-22.35,21.27-41.14,48.76-41.88
			c27.49-0.75,50.35,16.83,50.96,39.18l0.79,29.22c9.9-0.08,19.03-0.09,27.06-0.02c1.49,0.01,2.93,0.03,4.33,0.05l-0.82-30.1
			c-0.99-36.41-38.23-65.04-83.02-63.82c-44.79,1.21-80.43,31.82-79.44,68.23l0.82,30.1C321.88,304.63,323.32,304.53,324.8,304.44z"
			/>
		<path class="st1" d="M400.95,593.7c-2.34,0-4.68-0.61-6.78-1.82c-88.69-51.43-122.38-125.15-135.03-177.95
			c-13.67-57.06-6.41-101.74-6.09-103.61c0.75-4.48,3.71-8.28,7.87-10.12c1.35-0.6,33.66-14.69,84.27-21.79
			c46.59-6.54,118.27-8.11,195.19,21.54c4.25,1.64,7.39,5.31,8.35,9.76c0.96,4.45-0.38,9.09-3.58,12.33l-72.61,105.59
			c-2.53,2.57-5.98,4.02-9.58,4.03c-0.02,0-0.03,0-0.05,0c-3.58,0-7.02-1.42-9.55-3.96l-45.63-45.63c-5.28-5.28-5.28-13.83,0-19.11
			c5.28-5.28,13.83-5.28,19.11,0l36,36l48.13-80.72c-109.69-34.88-205.89-5.55-232.11,3.96c-1.3,14.22-2.68,47.41,6.84,86.46
			c16.18,66.36,54.94,118.73,115.27,155.77c88.39-54.31,114.8-132.74,121.28-189.64c0.84-7.42,7.53-12.75,14.95-11.9
			c7.42,0.84,12.74,7.54,11.9,14.95c-7.34,64.49-37.81,153.97-141.35,214.01C405.63,593.09,403.29,593.7,400.95,593.7z"/>
	</g>
	<linearGradient id="SVGID_1_" gradientUnits="userSpaceOnUse" x1="25.1983" y1="400" x2="774.8018" y2="400">
		<stop  offset="5.618000e-03" style="stop-color:#FAC826"/>
		<stop  offset="0.2528" style="stop-color:#FFFACB"/>
		<stop  offset="0.3048" style="stop-color:#F8EEBA"/>
		<stop  offset="0.408" style="stop-color:#E7D08D"/>
		<stop  offset="0.5516" style="stop-color:#CBA145"/>
		<stop  offset="0.5955" style="stop-color:#C2912E"/>
		<stop  offset="0.8708" style="stop-color:#EDD688"/>
		<stop  offset="1" style="stop-color:#FFFACB"/>
	</linearGradient>
	<circle class="st2" cx="400" cy="400" r="325"/>
	<path id="SVGID_x5F_00000124137123821242357360000014165693256624151996_x5F_" class="st3" d="M597.21,646.55
		c-136.16,108.91-334.84,86.82-443.75-49.34s-86.82-334.84,49.34-443.75s334.84-86.82,443.75,49.34S733.37,537.63,597.21,646.55z"/>
	<text>	<textPath  xlink:href="#SVGID_x5F_00000124137123821242357360000014165693256624151996_x5F_" startOffset="80.4853%">
<tspan  style="stroke:#000000;stroke-width:0.7432;stroke-miterlimit:10; font-family:'MontserratAlt1-Light'; font-size:86.356px;">ComplyHub.dev</tspan>	</textPath>
</text>
	<g>
		<path class="st4" d="M321.74,300.51c8.34-0.53,17.83-1.04,28.12-1.51l-0.82-30.41c-0.63-23.26,22.14-42.81,50.75-43.59
			c28.61-0.78,52.41,17.52,53.04,40.77l0.82,30.41c10.3-0.09,19.81-0.1,28.16-0.02c1.55,0.01,3.05,0.03,4.51,0.05l-0.85-31.32
			c-1.03-37.89-39.79-67.69-86.41-66.43c-46.62,1.26-83.71,33.12-82.68,71.01l0.85,31.32C318.69,300.7,320.19,300.61,321.74,300.51z
			"/>
		<path class="st4" d="M400.98,601.57c-2.44,0-4.87-0.63-7.05-1.9c-92.31-53.53-127.37-130.26-140.54-185.2
			c-14.23-59.39-6.67-105.89-6.34-107.84c0.79-4.66,3.86-8.62,8.19-10.53c1.41-0.62,35.04-15.28,87.7-22.68
			c48.49-6.81,123.09-8.44,203.15,22.42c4.42,1.7,7.69,5.52,8.69,10.16c1,4.63-0.4,9.46-3.73,12.84l-75.58,109.9
			c-2.63,2.67-6.22,4.18-9.97,4.2c-0.02,0-0.04,0-0.05,0c-3.73,0-7.31-1.48-9.94-4.12l-47.49-47.49c-5.49-5.49-5.49-14.4,0-19.89
			c5.49-5.49,14.4-5.49,19.89,0l37.47,37.47l50.09-84.01c-114.16-36.31-214.29-5.78-241.58,4.12c-1.35,14.8-2.79,49.35,7.12,89.99
			c16.84,69.07,57.18,123.58,119.97,162.13c91.99-56.53,119.49-138.15,126.22-197.37c0.88-7.72,7.84-13.27,15.56-12.38
			c7.72,0.88,13.26,7.85,12.38,15.56c-7.64,67.12-39.36,160.25-147.11,222.74C405.86,600.94,403.42,601.57,400.98,601.57z"/>
	</g>
</g>
</svg>
